<svg xmlns="http://www.w3.org/2000/svg" width="1200" height="630" viewBox="0 0 1200 630" fill="none">
  <defs>
    <linearGradient id="bg" x1="0" y1="0" x2="1200" y2="630" gradientUnits="userSpaceOnUse">
      <stop stop-color="#07070f"/>
      <stop offset="1" stop-color="#0d0d1a"/>
    </linearGradient>
    <radialGradient id="orb1" cx="0" cy="0" r="1" gradientUnits="userSpaceOnUse" gradientTransform="translate(220 160) rotate(24) scale(360 280)">
      <stop stop-color="#8b5cf6" stop-opacity="0.5"/>
      <stop offset="1" stop-color="#8b5cf6" stop-opacity="0"/>
    </radialGradient>
    <radialGradient id="orb2" cx="0" cy="0" r="1" gradientUnits="userSpaceOnUse" gradientTransform="translate(980 470) rotate(-12) scale(320 250)">
      <stop stop-color="#22d3ee" stop-opacity="0.42"/>
      <stop offset="1" stop-color="#22d3ee" stop-opacity="0"/>
    </radialGradient>
    <linearGradient id="headline" x1="345" y1="300" x2="1025" y2="460" gradientUnits="userSpaceOnUse">
      <stop stop-color="#a78bfa"/>
      <stop offset="1" stop-color="#22d3ee"/>
    </linearGradient>
  </defs>

  <rect width="1200" height="630" fill="url(#bg)"/>
  <rect width="1200" height="630" fill="url(#orb1)"/>
  <rect width="1200" height="630" fill="url(#orb2)"/>

  <g transform="translate(96,84)">
    <rect x="0" y="0" width="54" height="54" rx="16" fill="#0f1020" stroke="#27273d"/>
    <g transform="translate(13,13)" stroke="#a78bfa" stroke-width="2.1" stroke-linecap="round" stroke-linejoin="round">
      <circle cx="14" cy="14" r="12"/>
      <line x1="16.772" y1="9.2" x2="23.66" y2="21.128"/>
      <line x1="11.228" y1="9.2" x2="25" y2="9.2"/>
      <line x1="8.456" y1="14" x2="15.344" y2="2.072"/>
      <line x1="11.228" y1="18.8" x2="4.34" y2="6.872"/>
      <line x1="16.772" y1="18.8" x2="3" y2="18.8"/>
      <line x1="19.544" y1="14" x2="12.656" y2="25.928"/>
    </g>
    <text x="72" y="38" fill="#f8fafc" font-size="44" font-family="'Inter', Arial, sans-serif" font-weight="700">Unreel</text>
  </g>

  <text x="96" y="260" fill="#f8fafc" font-size="76" font-family="'Space Grotesk', 'Inter', Arial, sans-serif" font-weight="700">Reveal the Truth</text>
  <text x="96" y="350" fill="url(#headline)" font-size="76" font-family="'Space Grotesk', 'Inter', Arial, sans-serif" font-weight="700">Behind Every Reel</text>

  <text x="96" y="430" fill="#b8c0d4" font-size="34" font-family="'Inter', Arial, sans-serif" font-weight="500">
    AI fact-checking + bias detection for short-form videos.
  </text>

  <text x="96" y="500" fill="#93a0bd" font-size="26" font-family="'Inter', Arial, sans-serif" font-weight="500">
    YouTube Shorts · Instagram Reels · TikTok
  </text>
</svg>
